# xmcd
#
# Track frame offsets:
#	150
#	12825
#	33323
#	61094
#	83823
#	105409
#	122705
#	143643
#	166626
#	190337
#	209279
#	228324
#	249184
#	261677
#	287964
#	312559
#
# Disc length: 4522 seconds
#
# Revision: 0
# Processed by: cddbd v1.5.1PL0 Copyright (c) Steve Scherf et al.
# Submitted via: dBpowerAMP V4.0
#
DISCID=d811a810
DTITLE=Gary Rex Tanner - The Boys From Modesto
DYEAR=2004
DGENRE=Blues
TTITLE0=Monologue
TTITLE1=Wanted in Witchita
TTITLE2=Califoria Pie
TTITLE3=Boys From Modesto
TTITLE4=1952
TTITLE5=Draggin Tenth Street
TTITLE6=Cadillac Jack
TTITLE7=Modesto Girls
TTITLE8=The Grace of God
TTITLE9=Take a Number
TTITLE10=Little Brown Dog
TTITLE11=Max and the IRS
TTITLE12=Alkyhol
TTITLE13=Ill Get By
TTITLE14=The Plumbin' Shop
TTITLE15=Uncommon Boy
EXTD=
EXTT0=
EXTT1=
EXTT2=
EXTT3=
EXTT4=
EXTT5=
EXTT6=
EXTT7=
EXTT8=
EXTT9=
EXTT10=
EXTT11=
EXTT12=
EXTT13=
EXTT14=
EXTT15=
PLAYORDER=
